<?xml version="1.0" encoding="UTF-8"?>
<svg id="jcr18" xmlns="http://www.w3.org/2000/svg" version="1.1" viewBox="0 0 2000 154.82">
  <!-- Generator: Adobe Illustrator 29.1.0, SVG Export Plug-In . SVG Version: 2.1.0 Build 142)  -->
  <defs>
    <style>
      .st0 {
        fill: #fff;
      }
    </style>
  </defs>
  <g>
    <path class="st0" d="M30.79,102.76c-2.52-1.97-4.29-4.81-5.29-8.5l5.13-1.62c1,2.72,2.18,4.64,3.55,5.77,1.37,1.13,3.21,1.69,5.52,1.69,3.05,0,5.37-1.15,6.94-3.46,1.58-2.31,2.37-5.57,2.37-9.77v-30.01h6.23v29.85c0,6.05-1.33,10.73-3.99,14.04-2.66,3.31-6.48,4.96-11.48,4.96-3.47,0-6.47-.99-8.99-2.96Z"/>
    <path class="st0" d="M105.46,102.57c-2.92-2.1-5.18-5.02-6.79-8.78-1.61-3.76-2.41-8.07-2.41-12.93s.82-9,2.45-12.73c1.63-3.73,3.91-6.65,6.82-8.74,2.92-2.1,6.25-3.15,9.98-3.15s7.23,1.04,10.18,3.11c2.94,2.07,5.22,4.97,6.82,8.71,1.6,3.73,2.41,8,2.41,12.81s-.82,9.1-2.45,12.89c-1.63,3.79-3.91,6.72-6.83,8.82-2.92,2.1-6.27,3.15-10.06,3.15s-7.22-1.05-10.14-3.15ZM125.11,94.78c2.34-3.45,3.51-8.09,3.51-13.91s-1.18-10.29-3.55-13.72c-2.37-3.42-5.55-5.13-9.55-5.13s-7.09,1.7-9.43,5.1c-2.34,3.4-3.51,7.98-3.51,13.75s1.17,10.46,3.51,13.91c2.34,3.45,5.51,5.17,9.51,5.17s7.17-1.72,9.51-5.17Z"/>
    <path class="st0" d="M183.33,102.57c-2.92-2.1-5.14-5.01-6.67-8.74-1.53-3.73-2.29-8.05-2.29-12.96,0-4.65.8-8.85,2.41-12.58,1.6-3.73,3.93-6.67,6.98-8.82,3.05-2.15,6.65-3.22,10.81-3.22,3.47,0,6.5.82,9.07,2.45,2.58,1.64,4.63,4.04,6.15,7.21l-4.5,2.54c-1.26-2.1-2.75-3.7-4.46-4.79-1.71-1.09-3.8-1.64-6.27-1.64-2.95,0-5.47.86-7.57,2.57-2.1,1.71-3.7,4.01-4.77,6.9-1.08,2.89-1.62,6.02-1.62,9.39,0,5.52,1.17,10.12,3.51,13.79,2.34,3.68,5.61,5.52,9.82,5.52,3.16,0,5.77-1.22,7.85-3.67,2.08-2.45,3.14-5.76,3.2-9.95h-10.81v-5.54h16.96v2.99c0,4.45-.71,8.31-2.13,11.58-1.42,3.27-3.45,5.78-6.07,7.52-2.63,1.74-5.68,2.61-9.15,2.61-4.05,0-7.53-1.05-10.45-3.15Z"/>
    <path class="st0" d="M256.71,100.45c-2.97-3.51-4.46-8.3-4.46-14.35v-29.24h6.23v29.24c0,4.36.92,7.76,2.76,10.2,1.84,2.44,4.47,3.65,7.89,3.65s6.17-1.2,7.93-3.62c1.76-2.41,2.64-5.82,2.64-10.23v-29.24h6.23v29.24c0,5.95-1.46,10.71-4.38,14.27-2.92,3.57-7.06,5.35-12.43,5.35s-9.45-1.76-12.43-5.27Z"/>
    <path class="st0" d="M357.02,104.87h-27.53v-48.01h26.82v5.77h-20.67v14.93h18.38v5.77h-18.38v15.77h21.38v5.77Z"/>
    <path class="st0" d="M450.71,102.61c-2.92-2.07-5.17-4.99-6.75-8.74-1.58-3.76-2.37-8.09-2.37-13,0-4.65.78-8.85,2.33-12.58,1.55-3.73,3.77-6.67,6.67-8.82,2.89-2.15,6.34-3.22,10.34-3.22,3.26,0,6.13.83,8.6,2.5,2.47,1.67,4.42,4.07,5.84,7.19l-4.5,2.54c-1.16-2.1-2.54-3.71-4.14-4.81-1.61-1.1-3.54-1.65-5.8-1.65-2.74,0-5.09.86-7.06,2.57-1.97,1.71-3.46,4.01-4.46,6.9-1,2.89-1.5,6.02-1.5,9.39s.52,6.73,1.58,9.62c1.05,2.89,2.55,5.18,4.5,6.9,1.95,1.71,4.23,2.57,6.86,2.57,4.68,0,8.23-2.28,10.65-6.85l4.42,2.69c-1.42,2.98-3.39,5.37-5.92,7.19-2.52,1.82-5.55,2.73-9.07,2.73-3.89,0-7.3-1.04-10.22-3.11Z"/>
    <path class="st0" d="M522.51,102.57c-2.92-2.1-5.18-5.02-6.79-8.78-1.61-3.76-2.41-8.07-2.41-12.93s.82-9,2.45-12.73c1.63-3.73,3.91-6.65,6.82-8.74,2.92-2.1,6.25-3.15,9.98-3.15s7.23,1.04,10.18,3.11c2.94,2.07,5.22,4.97,6.82,8.71,1.6,3.73,2.41,8,2.41,12.81s-.82,9.1-2.45,12.89c-1.63,3.79-3.91,6.72-6.83,8.82-2.92,2.1-6.27,3.15-10.06,3.15s-7.22-1.05-10.14-3.15ZM542.15,94.78c2.34-3.45,3.51-8.09,3.51-13.91s-1.18-10.29-3.55-13.72c-2.37-3.42-5.55-5.13-9.55-5.13s-7.09,1.7-9.43,5.1c-2.34,3.4-3.51,7.98-3.51,13.75s1.17,10.46,3.51,13.91c2.34,3.45,5.51,5.17,9.51,5.17s7.17-1.72,9.51-5.17Z"/>
    <path class="st0" d="M598.76,104.87h-6.07l2.45-48.01h6.23l12.31,26.55,12.31-26.55h6.23l2.52,48.01h-6.07l-1.81-37.86-10.97,23.31h-4.58l-10.81-22.47-1.74,37.01Z"/>
    <path class="st0" d="M724.13,104.87v-48.01h12.15c5.26,0,9.38,1.4,12.35,4.19,2.97,2.8,4.46,6.48,4.46,11.04,0,3.18-.76,5.98-2.29,8.39-1.53,2.41-3.63,4.23-6.31,5.46l10.26,18.93h-6.86l-8.92-17.31c-1.26.1-2.24.15-2.92.15-2.1,0-4.02-.18-5.76-.54v17.7h-6.15ZM743.85,79.56c1.95-1.74,2.92-4.23,2.92-7.46s-.92-5.55-2.76-7.27c-1.84-1.72-4.47-2.58-7.89-2.58h-5.84v19.47c1.74.31,3.6.46,5.6.46,3.37,0,6.02-.87,7.97-2.62Z"/>
    <path class="st0" d="M822.35,104.87h-27.53v-48.01h26.82v5.77h-20.67v14.93h18.38v5.77h-18.38v15.77h21.38v5.77Z"/>
    <path class="st0" d="M859.12,95.95l4.1-2.92c1.89,2.46,3.85,4.27,5.88,5.42,2.02,1.15,4.46,1.73,7.3,1.73,3,0,5.23-.7,6.71-2.11,1.47-1.4,2.21-3.26,2.21-5.56,0-1.84-.34-3.33-1.03-4.48-.68-1.15-1.72-2.07-3.12-2.76-1.39-.69-3.3-1.39-5.72-2.11-3-.82-5.51-1.74-7.53-2.76-2.03-1.02-3.7-2.45-5.01-4.29-1.32-1.84-1.97-4.19-1.97-7.06,0-2.5.64-4.73,1.93-6.67,1.29-1.94,3.05-3.45,5.29-4.53,2.23-1.07,4.75-1.61,7.53-1.61,3.37,0,6.3.72,8.8,2.15,2.5,1.44,4.62,3.59,6.35,6.46l-4.1,3c-1.42-2.1-3-3.64-4.73-4.62-1.74-.97-3.81-1.46-6.23-1.46-2.84,0-5,.64-6.47,1.91-1.47,1.28-2.21,3.06-2.21,5.36s.8,4.08,2.41,5.2c1.6,1.12,4.19,2.19,7.77,3.21,3.1.87,5.67,1.87,7.69,2.99,2.02,1.13,3.62,2.66,4.77,4.61,1.16,1.94,1.74,4.45,1.74,7.52,0,3.99-1.38,7.18-4.14,9.56-2.76,2.38-6.46,3.57-11.09,3.57-7.31,0-13.02-3.26-17.12-9.77Z"/>
    <path class="st0" d="M932.65,104.87v-48.01h12.15c5.31,0,9.48,1.42,12.51,4.27,3.02,2.85,4.54,6.61,4.54,11.27,0,3.13-.74,5.9-2.21,8.31-1.47,2.41-3.52,4.28-6.15,5.62-2.63,1.33-5.6,2-8.92,2-2.1,0-4.02-.18-5.76-.54v17.08h-6.15ZM952.57,80.1c1.97-1.8,2.96-4.36,2.96-7.69s-.93-5.73-2.8-7.5c-1.87-1.77-4.56-2.65-8.09-2.65h-5.84v20.08c1.74.31,3.6.46,5.6.46,3.47,0,6.19-.9,8.17-2.69Z"/>
    <path class="st0" d="M1009.3,102.57c-2.92-2.1-5.18-5.02-6.79-8.78-1.61-3.76-2.41-8.07-2.41-12.93s.82-9,2.45-12.73c1.63-3.73,3.91-6.65,6.82-8.74,2.92-2.1,6.25-3.15,9.98-3.15s7.23,1.04,10.18,3.11c2.94,2.07,5.22,4.97,6.82,8.71,1.6,3.73,2.41,8,2.41,12.81s-.82,9.1-2.45,12.89c-1.63,3.79-3.91,6.72-6.83,8.82-2.92,2.1-6.27,3.15-10.06,3.15s-7.22-1.05-10.14-3.15ZM1028.94,94.78c2.34-3.45,3.51-8.09,3.51-13.91s-1.18-10.29-3.55-13.72c-2.37-3.42-5.55-5.13-9.55-5.13s-7.09,1.7-9.43,5.1c-2.34,3.4-3.51,7.98-3.51,13.75s1.17,10.46,3.51,13.91c2.34,3.45,5.51,5.17,9.51,5.17s7.17-1.72,9.51-5.17Z"/>
    <path class="st0" d="M1086.5,104.87h-5.84v-48.01h6.15l21.7,37.47v-37.47h5.84v48.01h-6.15l-21.7-37.47v37.47Z"/>
    <path class="st0" d="M1154.67,95.95l4.1-2.92c1.89,2.46,3.85,4.27,5.88,5.42,2.02,1.15,4.46,1.73,7.3,1.73,3,0,5.23-.7,6.71-2.11,1.47-1.4,2.21-3.26,2.21-5.56,0-1.84-.34-3.33-1.03-4.48-.68-1.15-1.72-2.07-3.12-2.76-1.39-.69-3.3-1.39-5.72-2.11-3-.82-5.51-1.74-7.53-2.76-2.03-1.02-3.7-2.45-5.01-4.29-1.32-1.84-1.97-4.19-1.97-7.06,0-2.5.64-4.73,1.93-6.67,1.29-1.94,3.05-3.45,5.29-4.53,2.23-1.07,4.75-1.61,7.53-1.61,3.37,0,6.3.72,8.8,2.15,2.5,1.44,4.62,3.59,6.35,6.46l-4.1,3c-1.42-2.1-3-3.64-4.73-4.62-1.74-.97-3.81-1.46-6.23-1.46-2.84,0-5,.64-6.47,1.91-1.47,1.28-2.21,3.06-2.21,5.36s.8,4.08,2.41,5.2c1.6,1.12,4.19,2.19,7.77,3.21,3.1.87,5.67,1.87,7.69,2.99,2.02,1.13,3.62,2.66,4.77,4.61,1.16,1.94,1.74,4.45,1.74,7.52,0,3.99-1.38,7.18-4.14,9.56-2.76,2.38-6.46,3.57-11.09,3.57-7.31,0-13.02-3.26-17.12-9.77Z"/>
    <path class="st0" d="M1229.38,104.87h-6.31l15.62-48.01h7.1l15.7,48.01h-6.55l-3.95-13.08h-17.67l-3.94,13.08ZM1242.16,62.86l-7.1,23.16h14.2l-7.1-23.16Z"/>
    <path class="st0" d="M1300.55,104.87v-48.01h13.65c4.73,0,8.44,1.1,11.12,3.31,2.68,2.21,4.02,5.26,4.02,9.16,0,2.72-.61,4.94-1.81,6.66-1.21,1.72-2.97,3.09-5.29,4.12,2.68.82,4.76,2.21,6.23,4.15,1.47,1.95,2.21,4.36,2.21,7.23,0,4.16-1.38,7.43-4.14,9.81-2.76,2.38-6.64,3.58-11.64,3.58h-14.36ZM1313.64,77.79c6.63,0,9.94-2.64,9.94-7.93s-3.31-7.62-9.94-7.62h-7.18v15.54h7.18ZM1314.27,99.49c6.94,0,10.41-2.67,10.41-8,0-2.77-.9-4.85-2.68-6.23-1.79-1.38-4.39-2.08-7.81-2.08h-7.73v16.31h7.81Z"/>
    <path class="st0" d="M1377.63,104.87h-6.23v-48.01h6.23v48.01Z"/>
    <path class="st0" d="M1448.87,104.87h-26.9v-48.01h6.23v42.24h20.67v5.77Z"/>
    <path class="st0" d="M1494.71,104.87h-6.23v-48.01h6.23v48.01Z"/>
    <path class="st0" d="M1539.05,104.87v-48.01h12.94c4.31,0,8.06.96,11.24,2.89,3.18,1.92,5.63,4.68,7.34,8.27,1.71,3.59,2.56,7.85,2.56,12.77s-.86,9.27-2.56,12.89c-1.71,3.62-4.16,6.39-7.34,8.31-3.18,1.92-6.93,2.89-11.24,2.89h-12.94ZM1551.99,99.18c4.63,0,8.27-1.64,10.93-4.92,2.66-3.28,3.99-7.77,3.99-13.47s-1.32-10.09-3.94-13.35c-2.63-3.26-6.26-4.89-10.89-4.89h-6.79v36.62h6.71Z"/>
    <path class="st0" d="M1615.42,104.87h-6.31l15.62-48.01h7.1l15.7,48.01h-6.55l-3.94-13.08h-17.67l-3.94,13.08ZM1628.2,62.86l-7.1,23.16h14.2l-7.1-23.16Z"/>
    <path class="st0" d="M1686.59,104.87v-48.01h12.94c4.31,0,8.06.96,11.24,2.89,3.18,1.92,5.63,4.68,7.34,8.27,1.71,3.59,2.56,7.85,2.56,12.77s-.86,9.27-2.56,12.89c-1.71,3.62-4.16,6.39-7.34,8.31-3.18,1.92-6.93,2.89-11.24,2.89h-12.94ZM1699.53,99.18c4.63,0,8.27-1.64,10.93-4.92,2.66-3.28,3.99-7.77,3.99-13.47s-1.32-10.09-3.94-13.35c-2.63-3.26-6.26-4.89-10.89-4.89h-6.79v36.62h6.71Z"/>
    <path class="st0" d="M1790.1,104.87h-27.54v-48.01h26.83v5.77h-20.67v14.93h18.38v5.77h-18.38v15.77h21.38v5.77Z"/>
  </g>
  <path class="st0" d="M1925.79,81.67c1.31-1.36,3.08-2.04,5.31-2.04s4,.68,5.31,2.04c1.31,1.36,1.97,3.35,1.97,5.98s-.64,4.49-1.93,5.89c-1.29,1.4-3.07,2.1-5.35,2.1s-4.06-.7-5.35-2.1c-1.29-1.39-1.93-3.36-1.93-5.89s.66-4.62,1.97-5.98M1926.42,60.77c1.13-1.15,2.69-1.72,4.69-1.72s3.58.57,4.68,1.72c1.1,1.15,1.66,2.74,1.66,4.77,0,1.87-.55,3.4-1.66,4.58-1.1,1.18-2.66,1.77-4.68,1.77s-3.55-.59-4.67-1.77c-1.14-1.18-1.71-2.71-1.71-4.58,0-2.03.56-3.62,1.69-4.77M1915.44,80.48c-1.29,2.34-1.93,4.95-1.93,7.84,0,4.33,1.45,8.01,4.35,11.03,2.9,3.05,7.18,4.57,12.82,4.57s10.04-1.52,13.19-4.56c3.15-3.04,4.72-6.72,4.72-11.05,0-2.88-.63-5.5-1.88-7.84-1.25-2.34-3.12-4.22-5.61-5.64,2.44-1.42,4.02-3.09,4.76-5.02.73-1.93,1.1-3.73,1.1-5.41,0-3.74-1.38-6.92-4.15-9.56-2.76-2.64-6.67-3.96-11.71-3.96s-8.94,1.32-11.71,3.96c-2.76,2.64-4.15,5.82-4.15,9.56,0,1.68.37,3.48,1.1,5.41.73,1.93,2.32,3.72,4.75,5.37-2.48,1.18-4.37,2.95-5.66,5.29M1902.09,102.58v-51.44h-8.26c0,.45-.13,1.14-.38,2.06-.44,1.54-1.09,2.77-1.95,3.69-1.25,1.35-2.88,2.25-4.88,2.69-1.25.29-3.45.5-6.58.64v6.88h11.88v35.47h10.17ZM1973.22,64.8l-8.64,1.84c.72,3.52,1.09,7.14,1.09,10.77,0,13.97-5.34,27.1-15.04,36.98-9.7,9.88-22.6,15.32-36.32,15.32s-26.62-5.44-36.32-15.32c-9.7-9.88-15.04-23.01-15.04-36.98s5.34-27.11,15.04-36.98c9.7-9.88,22.6-15.32,36.32-15.32,10.14,0,19.95,3,28.36,8.69l4.88-7.49c-9.86-6.67-21.36-10.19-33.24-10.19-8.12,0-16.01,1.62-23.43,4.82-7.17,3.09-13.6,7.51-19.13,13.13-5.53,5.63-9.87,12.18-12.9,19.48-3.14,7.56-4.73,15.58-4.73,23.86s1.59,16.3,4.73,23.86c3.03,7.3,7.37,13.85,12.9,19.48,5.53,5.63,11.96,10.05,19.13,13.13,7.42,3.2,15.31,4.82,23.43,4.82s16.01-1.62,23.43-4.82c7.17-3.09,13.6-7.5,19.13-13.13,5.53-5.63,9.87-12.18,12.9-19.48,3.14-7.56,4.73-15.59,4.73-23.86,0-4.25-.43-8.49-1.28-12.61M1958.14,57.6h6.4v-9.82h9.46v-6.18h-9.46v-9.87h-6.4v9.87h-9.55v6.18h9.55v9.82Z"/>
</svg>