<?xml version="1.0" encoding="UTF-8"?>
<svg id="Portaria" xmlns="http://www.w3.org/2000/svg" version="1.1" viewBox="0 0 2000 92.51">
  <!-- Generator: Adobe Illustrator 29.1.0, SVG Export Plug-In . SVG Version: 2.1.0 Build 142)  -->
  <defs>
    <style>
      .st0 {
        fill: #fff;
      }
    </style>
  </defs>
  <path class="st0" d="M42.64,67.14h-5.38l13.32-41.97h6.05l13.39,41.97h-5.58l-3.36-11.43h-15.07l-3.36,11.43h0ZM53.54,30.41l-6.05,20.25h12.11l-6.05-20.25h0Z"/>
  <path class="st0" d="M95.2,63.27c-2.53-3.07-3.8-7.25-3.8-12.54v-25.56h5.31v25.56c0,3.81.78,6.78,2.35,8.91,1.57,2.13,3.81,3.2,6.73,3.2s5.26-1.05,6.76-3.16c1.5-2.11,2.25-5.09,2.25-8.95v-25.56h5.31v25.56c0,5.2-1.24,9.36-3.73,12.48-2.49,3.12-6.02,4.67-10.59,4.67s-8.06-1.54-10.59-4.61h0Z"/>
  <path class="st0" d="M160.41,67.14h-5.31V30.21h-11.84v-5.05h29.06v5.05h-11.91v36.93Z"/>
  <path class="st0" d="M199.86,65.13c-2.49-1.83-4.42-4.39-5.79-7.68-1.37-3.28-2.05-7.05-2.05-11.3s.69-7.87,2.08-11.13,3.33-5.81,5.82-7.64c2.49-1.83,5.32-2.75,8.51-2.75s6.17.91,8.68,2.72,4.45,4.35,5.82,7.61c1.37,3.26,2.05,6.99,2.05,11.2s-.69,7.96-2.08,11.27-3.33,5.88-5.82,7.71c-2.49,1.83-5.35,2.75-8.58,2.75s-6.15-.92-8.64-2.75h0ZM216.61,58.31c2-3.01,2.99-7.07,2.99-12.16s-1.01-9-3.03-11.99-4.73-4.49-8.14-4.49-6.04,1.49-8.04,4.46c-2,2.97-2.99,6.98-2.99,12.02s1,9.14,2.99,12.16,4.7,4.52,8.1,4.52,6.11-1.51,8.1-4.52h0Z"/>
  <path class="st0" d="M249.94,67.14V25.17h10.36c4.48,0,7.99,1.22,10.53,3.67,2.53,2.44,3.8,5.66,3.8,9.65,0,2.78-.65,5.22-1.95,7.33s-3.09,3.7-5.38,4.78l8.74,16.55h-5.85l-7.6-15.13c-1.08.09-1.91.13-2.49.13-1.79,0-3.43-.16-4.91-.47v15.47h-5.25,0ZM266.75,45.01c1.66-1.52,2.49-3.7,2.49-6.52s-.78-4.85-2.35-6.36c-1.57-1.5-3.81-2.25-6.73-2.25h-4.98v17.02c1.48.27,3.07.4,4.78.4,2.87,0,5.13-.76,6.79-2.29h0Z"/>
  <path class="st0" d="M304.76,67.14h-5.31V25.17h5.31v41.97Z"/>
  <path class="st0" d="M356.14,67.14h-26.97v-4.44l20.18-32.49h-19.98v-5.05h26.23v4.44l-20.25,32.49h20.78v5.05h0Z"/>
  <path class="st0" d="M381.23,67.14h-5.38l13.32-41.97h6.05l13.39,41.97h-5.58l-3.36-11.43h-15.07l-3.36,11.43ZM392.13,30.41l-6.05,20.25h12.11l-6.05-20.25h0Z"/>
  <path class="st0" d="M431.14,67.14V25.17h11.03c3.68,0,6.87.84,9.58,2.52,2.71,1.68,4.8,4.09,6.25,7.23,1.46,3.14,2.19,6.86,2.19,11.17s-.73,8.1-2.19,11.27c-1.46,3.16-3.54,5.58-6.25,7.26-2.71,1.68-5.91,2.52-9.58,2.52h-11.03ZM442.17,62.16c3.94,0,7.05-1.43,9.32-4.3,2.26-2.87,3.4-6.79,3.4-11.77s-1.12-8.82-3.36-11.67c-2.24-2.85-5.34-4.27-9.28-4.27h-5.79v32.02h5.72,0Z"/>
  <path class="st0" d="M490.9,65.13c-2.49-1.83-4.42-4.39-5.79-7.68-1.37-3.28-2.05-7.05-2.05-11.3s.69-7.87,2.08-11.13,3.33-5.81,5.82-7.64,5.32-2.75,8.51-2.75,6.17.91,8.68,2.72,4.45,4.35,5.82,7.61c1.37,3.26,2.05,6.99,2.05,11.2s-.69,7.96-2.08,11.27-3.33,5.88-5.82,7.71-5.35,2.75-8.58,2.75-6.15-.92-8.64-2.75h0ZM507.65,58.31c2-3.01,2.99-7.07,2.99-12.16s-1.01-9-3.03-11.99-4.73-4.49-8.14-4.49-6.04,1.49-8.04,4.46c-2,2.97-2.99,6.98-2.99,12.02s1,9.14,2.99,12.16,4.7,4.52,8.1,4.52,6.11-1.51,8.1-4.52h0Z"/>
  <path class="st0" d="M569.63,67.14V25.17h10.36c4.53,0,8.08,1.24,10.66,3.73,2.58,2.49,3.87,5.77,3.87,9.85,0,2.74-.63,5.16-1.88,7.26-1.26,2.11-3.01,3.74-5.25,4.91-2.24,1.17-4.78,1.75-7.6,1.75-1.79,0-3.43-.16-4.91-.47v14.93h-5.25ZM586.62,45.48c1.68-1.57,2.52-3.81,2.52-6.73s-.8-5.01-2.39-6.56-3.89-2.32-6.89-2.32h-4.98v17.56c1.48.27,3.07.4,4.78.4,2.96,0,5.28-.78,6.96-2.35Z"/>
  <path class="st0" d="M641.94,67.14h-23.47V25.17h22.87v5.05h-17.62v13.05h15.67v5.05h-15.67v13.79h18.23v5.05h0Z"/>
  <path class="st0" d="M688.89,67.14h-22.94V25.17h5.31v36.93h17.62v5.05h0Z"/>
  <path class="st0" d="M713.57,67.14h-5.38l13.32-41.97h6.05l13.39,41.97h-5.58l-3.36-11.43h-15.07l-3.36,11.43ZM724.47,30.41l-6.05,20.25h12.11l-6.05-20.25h0Z"/>
  <path class="st0" d="M792.13,67.14V25.17h10.36c4.53,0,8.08,1.24,10.66,3.73,2.58,2.49,3.87,5.77,3.87,9.85,0,2.74-.63,5.16-1.88,7.26-1.26,2.11-3.01,3.74-5.25,4.91-2.24,1.17-4.78,1.75-7.6,1.75-1.79,0-3.43-.16-4.91-.47v14.93h-5.25ZM809.12,45.48c1.68-1.57,2.52-3.81,2.52-6.73s-.8-5.01-2.39-6.56-3.89-2.32-6.89-2.32h-4.98v17.56c1.48.27,3.07.4,4.78.4,2.96,0,5.28-.78,6.96-2.35Z"/>
  <path class="st0" d="M846.72,65.13c-2.49-1.83-4.42-4.39-5.79-7.68-1.37-3.28-2.05-7.05-2.05-11.3s.69-7.87,2.08-11.13,3.33-5.81,5.82-7.64,5.32-2.75,8.51-2.75,6.17.91,8.68,2.72,4.45,4.35,5.82,7.61c1.37,3.26,2.05,6.99,2.05,11.2s-.69,7.96-2.08,11.27-3.33,5.88-5.82,7.71-5.35,2.75-8.58,2.75-6.15-.92-8.64-2.75h0ZM863.46,58.31c2-3.01,2.99-7.07,2.99-12.16s-1.01-9-3.03-11.99-4.73-4.49-8.14-4.49-6.04,1.49-8.04,4.46c-2,2.97-2.99,6.98-2.99,12.02s1,9.14,2.99,12.16,4.7,4.52,8.1,4.52,6.11-1.51,8.1-4.52h0Z"/>
  <path class="st0" d="M896.79,67.14V25.17h10.36c4.48,0,7.99,1.22,10.53,3.67,2.53,2.44,3.8,5.66,3.8,9.65,0,2.78-.65,5.22-1.95,7.33s-3.09,3.7-5.38,4.78l8.74,16.55h-5.85l-7.6-15.13c-1.08.09-1.91.13-2.49.13-1.79,0-3.43-.16-4.91-.47v15.47h-5.25ZM913.61,45.01c1.66-1.52,2.49-3.7,2.49-6.52s-.78-4.85-2.35-6.36-3.81-2.25-6.73-2.25h-4.98v17.02c1.48.27,3.07.4,4.78.4,2.87,0,5.13-.76,6.79-2.29h0Z"/>
  <path class="st0" d="M959.61,67.14h-5.31V30.21h-11.84v-5.05h29.06v5.05h-11.91v36.93h0Z"/>
  <path class="st0" d="M992.64,67.14h-5.38l13.32-41.97h6.05l13.39,41.97h-5.58l-3.36-11.43h-15.07l-3.36,11.43h0ZM1003.53,30.41l-6.05,20.25h12.11l-6.05-20.25h0Z"/>
  <path class="st0" d="M1042.55,67.14V25.17h10.36c4.48,0,7.99,1.22,10.53,3.67,2.53,2.44,3.8,5.66,3.8,9.65,0,2.78-.65,5.22-1.95,7.33s-3.09,3.7-5.38,4.78l8.74,16.55h-5.85l-7.6-15.13c-1.08.09-1.91.13-2.49.13-1.79,0-3.43-.16-4.91-.47v15.47h-5.25ZM1059.36,45.01c1.66-1.52,2.49-3.7,2.49-6.52s-.78-4.85-2.35-6.36-3.81-2.25-6.73-2.25h-4.98v17.02c1.48.27,3.07.4,4.78.4,2.87,0,5.13-.76,6.79-2.29h0Z"/>
  <path class="st0" d="M1097.36,67.14h-5.31V25.17h5.31v41.97Z"/>
  <path class="st0" d="M1125.41,67.14h-5.38l13.32-41.97h6.05l13.39,41.97h-5.58l-3.36-11.43h-15.07l-3.36,11.43h0ZM1136.31,30.41l-6.05,20.25h12.11l-6.05-20.25h0Z"/>
  <path class="st0" d="M1200.54,59.34l3.5-2.56c1.62,2.15,3.28,3.73,5.01,4.74,1.73,1.01,3.8,1.51,6.22,1.51,2.56,0,4.46-.61,5.72-1.84,1.25-1.23,1.88-2.85,1.88-4.86,0-1.61-.29-2.91-.87-3.92s-1.47-1.81-2.66-2.41c-1.19-.6-2.82-1.22-4.88-1.84-2.56-.71-4.7-1.52-6.42-2.41-1.73-.89-3.15-2.15-4.27-3.75-1.12-1.61-1.68-3.67-1.68-6.17,0-2.19.55-4.13,1.65-5.83,1.1-1.7,2.6-3.02,4.51-3.96s4.05-1.41,6.42-1.41c2.87,0,5.37.63,7.5,1.88,2.13,1.26,3.93,3.14,5.41,5.65l-3.5,2.62c-1.21-1.84-2.56-3.18-4.04-4.04s-3.25-1.28-5.31-1.28c-2.42,0-4.26.56-5.52,1.67-1.26,1.12-1.88,2.68-1.88,4.68s.68,3.57,2.05,4.55c1.37.98,3.58,1.92,6.63,2.81,2.65.76,4.83,1.63,6.56,2.62s3.08,2.33,4.07,4.02c.99,1.7,1.48,3.89,1.48,6.58,0,3.49-1.18,6.27-3.53,8.35s-5.51,3.12-9.45,3.12c-6.23,0-11.1-2.85-14.6-8.54h0Z"/>
  <path class="st0" d="M1252.47,67.14V25.17h10.36c4.53,0,8.08,1.24,10.66,3.73,2.58,2.49,3.87,5.77,3.87,9.85,0,2.74-.63,5.16-1.88,7.26-1.26,2.11-3.01,3.74-5.25,4.91-2.24,1.17-4.78,1.75-7.6,1.75-1.79,0-3.43-.16-4.91-.47v14.93h-5.25ZM1269.45,45.48c1.68-1.57,2.52-3.81,2.52-6.73s-.8-5.01-2.39-6.56-3.89-2.32-6.89-2.32h-4.98v17.56c1.48.27,3.07.4,4.78.4,2.96,0,5.28-.78,6.96-2.35Z"/>
  <path class="st0" d="M1298.95,67.14h-5.38l13.32-41.97h6.05l13.39,41.97h-5.58l-3.36-11.43h-15.07l-3.36,11.43h0ZM1309.84,30.41l-6.05,20.25h12.11l-6.05-20.25h0Z"/>
  <path class="st0" d="M1369.03,20.32l-19.77,53.67-4.71-1.81,19.77-53.67,4.71,1.81h0Z"/>
  <path class="st0" d="M1396,67.14h-5.18l2.08-41.97h5.31l10.49,23.2,10.49-23.2h5.31l2.15,41.97h-5.18l-1.55-33.09-9.35,20.38h-3.9l-9.22-19.64-1.48,32.35h0Z"/>
  <path class="st0" d="M1458.02,67.14h-5.31V25.17h23v5.05h-17.69v13.52h15.67v5.05h-15.67v18.36h0Z"/>
  <path class="st0" d="M1533.42,67.14h-4.98V25.17h5.25l18.5,32.76V25.17h4.98v41.97h-5.25l-18.5-32.76v32.76h0Z"/>
  <path class="st0" d="M1584,45.03c-1.84-2.14-2.76-4.99-2.76-8.56s.92-6.43,2.76-8.59c1.84-2.16,4.26-3.24,7.26-3.24s5.43,1.07,7.26,3.21,2.76,4.99,2.76,8.56-.92,6.38-2.76,8.56c-1.84,2.19-4.26,3.28-7.26,3.28s-5.43-1.07-7.26-3.21h0ZM1595.33,42.03c1.01-1.4,1.51-3.28,1.51-5.63s-.5-4.17-1.51-5.57c-1.01-1.4-2.37-2.1-4.07-2.1s-3.06.7-4.07,2.1c-1.01,1.4-1.51,3.28-1.51,5.63s.5,4.22,1.51,5.6c1.01,1.38,2.36,2.07,4.07,2.07s3.06-.7,4.07-2.1Z"/>
  <path class="st0" d="M1623.55,67.14v-3.9l12.31-14.26c2.2-2.51,3.7-4.65,4.51-6.42.81-1.77,1.21-3.71,1.21-5.82s-.61-3.63-1.82-4.84-2.87-1.81-4.98-1.81c-1.93,0-3.59.52-4.98,1.55-1.39,1.03-2.65,2.6-3.77,4.71l-3.7-2.42c2.82-5.83,7.02-8.74,12.58-8.74,3.63,0,6.53,1.09,8.71,3.26,2.17,2.18,3.26,4.97,3.26,8.37,0,2.92-.56,5.44-1.68,7.57-1.12,2.13-2.89,4.56-5.31,7.3l-9.42,10.69h17.15v4.78h-24.08,0Z"/>
  <path class="st0" d="M1672.69,66.73c-.65-.77-.97-1.72-.97-2.85s.32-2.09.97-2.85c.65-.77,1.49-1.15,2.52-1.15s1.87.38,2.52,1.15.97,1.72.97,2.85-.33,2.09-.97,2.85c-.65.77-1.49,1.15-2.52,1.15s-1.87-.38-2.52-1.15Z"/>
  <path class="st0" d="M1704.36,62.09c-2.4-3.86-3.6-9.06-3.6-15.6,0-4.17.55-7.87,1.65-11.1,1.1-3.23,2.69-5.74,4.78-7.53s4.56-2.69,7.43-2.69c4.44,0,7.86,1.92,10.26,5.75,2.4,3.83,3.6,9.03,3.6,15.57,0,4.21-.55,7.94-1.65,11.17s-2.69,5.74-4.78,7.53c-2.08,1.79-4.56,2.69-7.43,2.69-4.44,0-7.86-1.93-10.26-5.79h0ZM1720.94,58.46c1.43-2.91,2.15-6.91,2.15-11.97s-.72-9.16-2.15-12.01-3.54-4.27-6.32-4.27-4.89,1.46-6.32,4.37c-1.43,2.92-2.15,6.88-2.15,11.91s.72,9.23,2.15,12.07c1.43,2.85,3.54,4.27,6.32,4.27s4.89-1.46,6.32-4.37Z"/>
  <path class="st0" d="M1759.15,68.41l-3.83-2.56,12.04-15.67c-1.84,1.39-3.83,2.08-5.99,2.08-2.29,0-4.32-.57-6.09-1.72-1.77-1.14-3.15-2.72-4.14-4.74-.99-2.02-1.48-4.28-1.48-6.79,0-2.65.54-5.02,1.62-7.13,1.08-2.11,2.59-3.75,4.54-4.94,1.95-1.19,4.18-1.78,6.69-1.78s4.81.57,6.76,1.72,3.46,2.75,4.54,4.81c1.08,2.06,1.62,4.44,1.62,7.13,0,5.47-1.79,10.56-5.38,15.27l-10.9,14.33h0ZM1768.2,45.41c1.46-1.52,2.19-3.65,2.19-6.39,0-2.87-.68-5.09-2.05-6.66-1.37-1.57-3.28-2.35-5.75-2.35s-4.45.8-5.82,2.39c-1.37,1.59-2.05,3.8-2.05,6.63s.64,4.98,1.92,6.46c1.28,1.48,3.17,2.22,5.68,2.22s4.43-.76,5.89-2.29h0Z"/>
  <path class="st0" d="M1798.16,67.14v-3.9l12.31-14.26c2.2-2.51,3.7-4.65,4.51-6.42.81-1.77,1.21-3.71,1.21-5.82s-.61-3.63-1.82-4.84-2.87-1.81-4.98-1.81c-1.93,0-3.59.52-4.98,1.55-1.39,1.03-2.65,2.6-3.77,4.71l-3.7-2.42c2.82-5.83,7.02-8.74,12.58-8.74,3.63,0,6.53,1.09,8.71,3.26,2.17,2.18,3.26,4.97,3.26,8.37,0,2.92-.56,5.44-1.68,7.57-1.12,2.13-2.89,4.56-5.31,7.3l-9.42,10.69h17.15v4.78h-24.08,0Z"/>
  <path class="st0" d="M1868.04,20.32l-19.78,53.67-4.71-1.81,19.77-53.67,4.71,1.81h0Z"/>
  <path class="st0" d="M1889.03,67.14v-3.9l12.31-14.26c2.2-2.51,3.7-4.65,4.51-6.42.81-1.77,1.21-3.71,1.21-5.82s-.61-3.63-1.82-4.84-2.87-1.81-4.98-1.81c-1.93,0-3.59.52-4.98,1.55-1.39,1.03-2.65,2.6-3.77,4.71l-3.7-2.42c2.82-5.83,7.02-8.74,12.58-8.74,3.63,0,6.53,1.09,8.71,3.26,2.17,2.18,3.26,4.97,3.26,8.37,0,2.92-.56,5.44-1.68,7.57-1.12,2.13-2.89,4.56-5.31,7.3l-9.42,10.69h17.15v4.78h-24.08,0Z"/>
  <path class="st0" d="M1957.7,67.14h-5.04v-10.56h-16.48v-4.51l13.66-27.04,4.24,2.08-12.58,24.95h11.3v-9.48h4.91v9.48h5.05v4.51h-5.05v10.56h0Z"/>
</svg>